<svg width="108" height="102" viewBox="0 0 108 102" fill="none" xmlns="http://www.w3.org/2000/svg">
<g filter="url(#filter0_d_185_76)">
<path d="M33.6105 74H51L30.9625 22H15L33.6105 74Z" fill="#2469BC"/>
</g>
<path d="M2.90625 22.25H5.15625L5.15625 74H2.90625L2.90625 22.25ZM16.4062 22.25H18.6562L18.6562 62.75L36.6562 62.75V65H18.6562V67.25H36.6562V69.5H18.6562V71.75H36.6562V74H16.4062L16.4062 22.25ZM11.9062 22.25H14.1562L14.1562 74H11.9062L11.9062 22.25ZM7.40625 22.25H9.65625L9.65625 74H7.40625L7.40625 22.25Z" fill="white"/>
<path d="M87.843 40.042L86.1145 41.1846C85.0598 39.6221 83.6829 38.3916 81.9836 37.4932C80.304 36.5752 78.4778 36.1162 76.5051 36.1162C73.302 36.1162 70.5676 37.249 68.302 39.5146C66.0364 41.7803 64.9036 44.5146 64.9036 47.7178C64.9036 50.9209 66.0364 53.6553 68.302 55.9209C70.5676 58.1865 73.302 59.3193 76.5051 59.3193C78.4778 59.3193 80.304 58.8604 81.9836 57.9424C83.6829 57.0244 85.0598 55.7842 86.1145 54.2217L87.8137 55.4521C86.5637 57.2881 84.9426 58.7432 82.9504 59.8174C80.9583 60.8916 78.8098 61.4287 76.5051 61.4287C74.6497 61.4287 72.8723 61.0674 71.1731 60.3447C69.4934 59.6221 68.0383 58.6455 66.8079 57.415C65.5774 56.1846 64.6008 54.7295 63.8782 53.0498C63.1555 51.3506 62.7942 49.5732 62.7942 47.7178C62.7942 45.8623 63.1555 44.0947 63.8782 42.415C64.6008 40.7158 65.5774 39.251 66.8079 38.0205C68.0383 36.79 69.4934 35.8135 71.1731 35.0908C72.8723 34.3682 74.6497 34.0068 76.5051 34.0068C78.8293 34.0068 80.9875 34.5537 82.9797 35.6475C84.9719 36.7217 86.593 38.1865 87.843 40.042ZM91.3293 37.6396L89.5715 38.7822C88.1262 36.6729 86.2512 35.0029 83.9465 33.7725C81.6614 32.5225 79.1809 31.8975 76.5051 31.8975C73.634 31.8975 70.9875 32.6104 68.5657 34.0361C66.1438 35.4424 64.22 37.3564 62.7942 39.7783C61.3879 42.2002 60.6848 44.8467 60.6848 47.7178C60.6848 50.5889 61.3879 53.2354 62.7942 55.6572C64.22 58.0791 66.1438 60.0029 68.5657 61.4287C70.9875 62.835 73.634 63.5381 76.5051 63.5381C79.1809 63.5381 81.6711 62.9131 83.9758 61.6631C86.2805 60.4131 88.1555 58.7236 89.6008 56.5947L91.3293 57.7959C89.6887 60.2178 87.5598 62.1318 84.9426 63.5381C82.345 64.9443 79.5325 65.6475 76.5051 65.6475C73.2629 65.6475 70.2649 64.8467 67.511 63.2451C64.7571 61.6436 62.5793 59.4658 60.9778 56.7119C59.3762 53.958 58.5754 50.96 58.5754 47.7178C58.5754 44.4756 59.3762 41.4775 60.9778 38.7236C62.5793 35.9697 64.7571 33.792 67.511 32.1904C70.2649 30.5889 73.2629 29.7881 76.5051 29.7881C79.5325 29.7881 82.345 30.4912 84.9426 31.8975C87.5598 33.3037 89.6887 35.2178 91.3293 37.6396ZM94.845 35.2959L93.0872 36.4385C91.2512 33.7432 88.8684 31.6143 85.9387 30.0518C83.0286 28.4697 79.884 27.6787 76.5051 27.6787C73.7903 27.6787 71.1926 28.2061 68.7122 29.2607C66.2317 30.3154 64.093 31.7412 62.2961 33.5381C60.5188 35.3154 59.1028 37.4443 58.0481 39.9248C56.9934 42.4053 56.4661 45.0029 56.4661 47.7178C56.4661 50.4326 56.9934 53.0303 58.0481 55.5107C59.1028 57.9912 60.5188 60.1299 62.2961 61.9268C64.093 63.7041 66.2317 65.1201 68.7122 66.1748C71.1926 67.2295 73.7903 67.7568 76.5051 67.7568C79.9036 67.7568 83.0579 66.9658 85.968 65.3838C88.8782 63.8018 91.2512 61.6631 93.0872 58.9678L94.7864 60.2275C92.7551 63.1963 90.1282 65.5498 86.9055 67.2881C83.7024 69.0068 80.2356 69.8662 76.5051 69.8662C72.5012 69.8662 68.8 68.8799 65.4016 66.9072C62.0032 64.915 59.3079 62.2197 57.3157 58.8213C55.343 55.4229 54.3567 51.7217 54.3567 47.7178C54.3567 43.7139 55.343 40.0127 57.3157 36.6143C59.3079 33.2158 62.0032 30.5303 65.4016 28.5576C68.8 26.5654 72.5012 25.5693 76.5051 25.5693C80.2551 25.5693 83.7415 26.4482 86.9641 28.2061C90.1868 29.9443 92.8137 32.3076 94.845 35.2959ZM98.302 32.8936L96.5442 34.0361C94.3176 30.7744 91.4368 28.1963 87.9016 26.3018C84.386 24.4072 80.5872 23.46 76.5051 23.46C73.2239 23.46 70.0793 24.1045 67.0715 25.3936C64.0833 26.6631 61.5051 28.3818 59.3372 30.5498C57.1692 32.7178 55.4407 35.3057 54.1516 38.3135C52.8821 41.3018 52.2473 44.4365 52.2473 47.7178C52.2473 50.999 52.8821 54.1436 54.1516 57.1514C55.4407 60.1396 57.1692 62.7178 59.3372 64.8857C61.5051 67.0537 64.0833 68.7822 67.0715 70.0713C70.0793 71.3408 73.2239 71.9756 76.5051 71.9756C80.5872 71.9756 84.3958 71.0186 87.9309 69.1045C91.4661 67.1904 94.3469 64.6025 96.5735 61.3408L98.2727 62.6299C95.8508 66.1455 92.7258 68.9385 88.8977 71.0088C85.0696 73.0596 80.9387 74.085 76.5051 74.085C72.9309 74.085 69.5129 73.3818 66.2512 71.9756C63.009 70.5889 60.2063 68.7236 57.843 66.3799C55.4993 64.0166 53.6243 61.2139 52.218 57.9717C50.8313 54.71 50.1379 51.292 50.1379 47.7178C50.1379 44.1436 50.8313 40.7354 52.218 37.4932C53.6243 34.2314 55.4993 31.4287 57.843 29.085C60.2063 26.7217 63.009 24.8467 66.2512 23.46C69.5129 22.0537 72.9309 21.3506 76.5051 21.3506C80.9583 21.3506 85.0989 22.3857 88.927 24.4561C92.7551 26.5264 95.8801 29.3389 98.302 32.8936Z" fill="white"/>
<g filter="url(#filter1_d_185_76)">
<path d="M57.4438 74H40L60.0947 22H76L57.4438 74Z" fill="#639EE5"/>
</g>
<path d="M6.58381 84.5C6.5554 84.1449 6.42223 83.8679 6.1843 83.669C5.94993 83.4702 5.59304 83.3707 5.11364 83.3707C4.80824 83.3707 4.55788 83.408 4.36257 83.4826C4.17081 83.5536 4.02876 83.6513 3.93643 83.7756C3.84411 83.8999 3.79616 84.0419 3.79261 84.2017C3.78551 84.3331 3.80859 84.4521 3.86186 84.5586C3.91868 84.6616 4.00746 84.7557 4.1282 84.8409C4.24893 84.9226 4.40341 84.9972 4.59162 85.0646C4.77983 85.1321 5.00355 85.1925 5.26278 85.2457L6.15767 85.4375C6.76136 85.5653 7.27805 85.734 7.70774 85.9435C8.13743 86.1531 8.48899 86.3999 8.76243 86.6839C9.03587 86.9645 9.23651 87.2805 9.36435 87.6321C9.49574 87.9837 9.56321 88.3672 9.56676 88.7827C9.56321 89.5 9.38388 90.1072 9.02876 90.6044C8.67365 91.1016 8.16584 91.4798 7.50533 91.739C6.84837 91.9982 6.05824 92.1278 5.13494 92.1278C4.18679 92.1278 3.35938 91.9876 2.6527 91.707C1.94957 91.4265 1.4027 90.995 1.01207 90.4126C0.625 89.8267 0.429688 89.0774 0.426136 88.1648H3.23864C3.25639 88.4986 3.33984 88.7791 3.48899 89.0064C3.63814 89.2337 3.84766 89.4059 4.11754 89.5231C4.39098 89.6403 4.71591 89.6989 5.09233 89.6989C5.40838 89.6989 5.67294 89.6598 5.88601 89.5817C6.09908 89.5036 6.26065 89.3952 6.37074 89.2567C6.48082 89.1183 6.53764 88.9602 6.54119 88.7827C6.53764 88.6158 6.4826 88.4702 6.37607 88.3459C6.27308 88.218 6.10263 88.1044 5.8647 88.005C5.62678 87.902 5.3054 87.8061 4.90057 87.7173L3.81392 87.483C2.84801 87.2734 2.08629 86.9237 1.52876 86.4336C0.974787 85.94 0.699574 85.267 0.703125 84.4148C0.699574 83.7223 0.884233 83.1168 1.2571 82.5984C1.63352 82.0763 2.15376 81.6697 2.81783 81.3786C3.48544 81.0874 4.25071 80.9418 5.11364 80.9418C5.99432 80.9418 6.75604 81.0891 7.39879 81.3839C8.04155 81.6786 8.53693 82.0941 8.88494 82.6303C9.23651 83.163 9.41406 83.7862 9.41761 84.5H6.58381ZM22.1615 86.5455C22.1615 87.7599 21.9254 88.7844 21.4531 89.619C20.9808 90.4499 20.3434 91.0803 19.5408 91.5099C18.7382 91.9361 17.8434 92.1491 16.8561 92.1491C15.8618 92.1491 14.9634 91.9343 14.1608 91.5046C13.3618 91.0714 12.7262 90.4393 12.2539 89.6083C11.7851 88.7738 11.5507 87.7528 11.5507 86.5455C11.5507 85.331 11.7851 84.3082 12.2539 83.4773C12.7262 82.6428 13.3618 82.0124 14.1608 81.5863C14.9634 81.1566 15.8618 80.9418 16.8561 80.9418C17.8434 80.9418 18.7382 81.1566 19.5408 81.5863C20.3434 82.0124 20.9808 82.6428 21.4531 83.4773C21.9254 84.3082 22.1615 85.331 22.1615 86.5455ZM19.1147 86.5455C19.1147 85.892 19.0277 85.3416 18.8537 84.8942C18.6832 84.4432 18.4293 84.1023 18.0919 83.8714C17.7581 83.6371 17.3462 83.5199 16.8561 83.5199C16.3661 83.5199 15.9524 83.6371 15.615 83.8714C15.2812 84.1023 15.0273 84.4432 14.8533 84.8942C14.6828 85.3416 14.5976 85.892 14.5976 86.5455C14.5976 87.1989 14.6828 87.7511 14.8533 88.2021C15.0273 88.6495 15.2812 88.9904 15.615 89.2248C15.9524 89.4556 16.3661 89.571 16.8561 89.571C17.3462 89.571 17.7581 89.4556 18.0919 89.2248C18.4293 88.9904 18.6832 88.6495 18.8537 88.2021C19.0277 87.7511 19.1147 87.1989 19.1147 86.5455ZM24.4318 92V81.0909H27.3935V89.6136H31.804V92H24.4318ZM40.3571 81.0909H43.3188V88.0795C43.3188 88.9105 43.1199 89.6296 42.7222 90.2369C42.328 90.8406 41.7776 91.3075 41.0709 91.6378C40.3642 91.9645 39.5439 92.1278 38.61 92.1278C37.6689 92.1278 36.8451 91.9645 36.1384 91.6378C35.4317 91.3075 34.8813 90.8406 34.4871 90.2369C34.0965 89.6296 33.9012 88.9105 33.9012 88.0795V81.0909H36.8628V87.8239C36.8628 88.1612 36.9374 88.4631 37.0865 88.7294C37.2357 88.9922 37.4417 89.1982 37.7044 89.3473C37.9708 89.4964 38.2726 89.571 38.61 89.571C38.9509 89.571 39.2527 89.4964 39.5155 89.3473C39.7783 89.1982 39.9843 88.9922 40.1334 88.7294C40.2826 88.4631 40.3571 88.1612 40.3571 87.8239V81.0909ZM45.3281 83.4773V81.0909H54.8096V83.4773H51.5284V92H48.6093V83.4773H45.3281ZM59.7859 81.0909V92H56.8242V81.0909H59.7859ZM72.6576 86.5455C72.6576 87.7599 72.4215 88.7844 71.9492 89.619C71.4769 90.4499 70.8395 91.0803 70.0369 91.5099C69.2343 91.9361 68.3395 92.1491 67.3522 92.1491C66.3579 92.1491 65.4595 91.9343 64.6569 91.5046C63.8579 91.0714 63.2223 90.4393 62.75 89.6083C62.2812 88.7738 62.0468 87.7528 62.0468 86.5455C62.0468 85.331 62.2812 84.3082 62.75 83.4773C63.2223 82.6428 63.8579 82.0124 64.6569 81.5863C65.4595 81.1566 66.3579 80.9418 67.3522 80.9418C68.3395 80.9418 69.2343 81.1566 70.0369 81.5863C70.8395 82.0124 71.4769 82.6428 71.9492 83.4773C72.4215 84.3082 72.6576 85.331 72.6576 86.5455ZM69.6108 86.5455C69.6108 85.892 69.5238 85.3416 69.3498 84.8942C69.1793 84.4432 68.9254 84.1023 68.588 83.8714C68.2542 83.6371 67.8423 83.5199 67.3522 83.5199C66.8622 83.5199 66.4485 83.6371 66.1111 83.8714C65.7773 84.1023 65.5234 84.4432 65.3494 84.8942C65.1789 85.3416 65.0937 85.892 65.0937 86.5455C65.0937 87.1989 65.1789 87.7511 65.3494 88.2021C65.5234 88.6495 65.7773 88.9904 66.1111 89.2248C66.4485 89.4556 66.8622 89.571 67.3522 89.571C67.8423 89.571 68.2542 89.4556 68.588 89.2248C68.9254 88.9904 69.1793 88.6495 69.3498 88.2021C69.5238 87.7511 69.6108 87.1989 69.6108 86.5455ZM84.3669 81.0909V92H81.8953L77.9535 86.2685H77.8896V92H74.9279V81.0909H77.4421L81.32 86.8011H81.4052V81.0909H84.3669ZM92.5485 84.5C92.52 84.1449 92.3869 83.8679 92.1489 83.669C91.9146 83.4702 91.5577 83.3707 91.0783 83.3707C90.7729 83.3707 90.5225 83.408 90.3272 83.4826C90.1355 83.5536 89.9934 83.6513 89.9011 83.7756C89.8088 83.8999 89.7608 84.0419 89.7573 84.2017C89.7502 84.3331 89.7732 84.4521 89.8265 84.5586C89.8833 84.6616 89.9721 84.7557 90.0928 84.8409C90.2136 84.9226 90.3681 84.9972 90.5563 85.0646C90.7445 85.1321 90.9682 85.1925 91.2274 85.2457L92.1223 85.4375C92.726 85.5653 93.2427 85.734 93.6724 85.9435C94.1021 86.1531 94.4536 86.3999 94.7271 86.6839C95.0005 86.9645 95.2012 87.2805 95.329 87.6321C95.4604 87.9837 95.5279 88.3672 95.5314 88.7827C95.5279 89.5 95.3485 90.1072 94.9934 90.6044C94.6383 91.1016 94.1305 91.4798 93.47 91.739C92.813 91.9982 92.0229 92.1278 91.0996 92.1278C90.1514 92.1278 89.324 91.9876 88.6173 91.707C87.9142 91.4265 87.3673 90.995 86.9767 90.4126C86.5896 89.8267 86.3943 89.0774 86.3908 88.1648H89.2033C89.221 88.4986 89.3045 88.7791 89.4536 89.0064C89.6028 89.2337 89.8123 89.4059 90.0822 89.5231C90.3556 89.6403 90.6806 89.6989 91.057 89.6989C91.373 89.6989 91.6376 89.6598 91.8507 89.5817C92.0637 89.5036 92.2253 89.3952 92.3354 89.2567C92.4455 89.1183 92.5023 88.9602 92.5058 88.7827C92.5023 88.6158 92.4472 88.4702 92.3407 88.3459C92.2377 88.218 92.0673 88.1044 91.8293 88.005C91.5914 87.902 91.27 87.8061 90.8652 87.7173L89.7786 87.483C88.8127 87.2734 88.0509 86.9237 87.4934 86.4336C86.9394 85.94 86.6642 85.267 86.6678 84.4148C86.6642 83.7223 86.8489 83.1168 87.2217 82.5984C87.5982 82.0763 88.1184 81.6697 88.7825 81.3786C89.4501 81.0874 90.2154 80.9418 91.0783 80.9418C91.959 80.9418 92.7207 81.0891 93.3634 81.3839C94.0062 81.6786 94.5016 82.0941 94.8496 82.6303C95.2012 83.163 95.3787 83.7862 95.3823 84.5H92.5485Z" fill="#2469BC"/>
<path d="M6.58381 84.5L6.3346 84.5199L6.35301 84.75H6.58381V84.5ZM6.1843 83.669L6.02256 83.8597L6.02398 83.8609L6.1843 83.669ZM4.36257 83.4826L4.4494 83.717L4.45175 83.7162L4.36257 83.4826ZM3.93643 83.7756L3.73575 83.6265V83.6265L3.93643 83.7756ZM3.79261 84.2017L4.04238 84.2152L4.04255 84.2073L3.79261 84.2017ZM3.86186 84.5586L3.63807 84.6705L3.64297 84.6794L3.86186 84.5586ZM4.1282 84.8409L3.984 85.0452L3.98812 85.048L4.1282 84.8409ZM5.26278 85.2457L5.31517 85.0013L5.3131 85.0009L5.26278 85.2457ZM6.15767 85.4375L6.10529 85.682L6.10588 85.6821L6.15767 85.4375ZM8.76243 86.6839L8.5823 86.8573L8.5834 86.8584L8.76243 86.6839ZM9.36435 87.6321L9.12939 87.7175L9.13017 87.7196L9.36435 87.6321ZM9.56676 88.7827L9.81678 88.7839L9.81675 88.7805L9.56676 88.7827ZM9.02876 90.6044L9.2322 90.7497L9.02876 90.6044ZM7.50533 91.739L7.41399 91.5063L7.41356 91.5064L7.50533 91.739ZM2.6527 91.707L2.56005 91.9392L2.56046 91.9394L2.6527 91.707ZM1.01207 90.4126L0.803475 90.5504L0.804452 90.5519L1.01207 90.4126ZM0.426136 88.1648V87.9148H0.175162L0.176138 88.1657L0.426136 88.1648ZM3.23864 88.1648L3.48828 88.1515L3.47569 87.9148H3.23864V88.1648ZM3.48899 89.0064L3.27998 89.1436H3.27998L3.48899 89.0064ZM4.11754 89.5231L4.01797 89.7524L4.01906 89.7529L4.11754 89.5231ZM5.88601 89.5817L5.97207 89.8164L5.88601 89.5817ZM6.37074 89.2567L6.56644 89.4123L6.37074 89.2567ZM6.54119 88.7827L6.79136 88.7877L6.79114 88.7774L6.54119 88.7827ZM6.37607 88.3459L6.18129 88.5028L6.18625 88.5086L6.37607 88.3459ZM5.8647 88.005L5.76539 88.2344L5.7683 88.2356L5.8647 88.005ZM4.90057 87.7173L4.95412 87.4731L4.95328 87.4729L4.90057 87.7173ZM3.81392 87.483L3.76093 87.7273L3.76121 87.7273L3.81392 87.483ZM1.52876 86.4336L1.36245 86.6203L1.36372 86.6214L1.52876 86.4336ZM0.703125 84.4148L0.953134 84.4158L0.953122 84.4135L0.703125 84.4148ZM1.2571 82.5984L1.05432 82.4521L1.05414 82.4524L1.2571 82.5984ZM2.81783 81.3786L2.71788 81.1494L2.71743 81.1496L2.81783 81.3786ZM7.39879 81.3839L7.29459 81.6111L7.39879 81.3839ZM8.88494 82.6303L8.67523 82.7664L8.67629 82.768L8.88494 82.6303ZM9.41761 84.5V84.75H9.66886L9.66761 84.4988L9.41761 84.5ZM6.83301 84.4801C6.80012 84.0689 6.64184 83.7256 6.34463 83.4772L6.02398 83.8609C6.20262 84.0102 6.31068 84.2209 6.3346 84.5199L6.83301 84.4801ZM6.34605 83.4784C6.0472 83.2248 5.62078 83.1207 5.11364 83.1207V83.6207C5.5653 83.6207 5.85266 83.7155 6.02256 83.8597L6.34605 83.4784ZM5.11364 83.1207C4.79055 83.1207 4.50709 83.1598 4.2734 83.249L4.45175 83.7162C4.60868 83.6562 4.82592 83.6207 5.11364 83.6207V83.1207ZM4.27574 83.2482C4.05285 83.3307 3.86487 83.4527 3.73575 83.6265L4.13712 83.9246C4.19265 83.8499 4.28877 83.7765 4.4494 83.717L4.27574 83.2482ZM3.73575 83.6265C3.61148 83.7938 3.54734 83.9863 3.54268 84.1961L4.04255 84.2073C4.04499 84.0975 4.07673 84.0059 4.13712 83.9246L3.73575 83.6265ZM3.54298 84.1882C3.53379 84.3583 3.56361 84.5211 3.63825 84.6704L4.08547 84.4468C4.05358 84.383 4.03724 84.3079 4.04225 84.2152L3.54298 84.1882ZM3.64297 84.6794C3.72213 84.8228 3.8401 84.9436 3.98403 85.0452L4.27237 84.6367C4.17481 84.5678 4.11523 84.5003 4.08076 84.4378L3.64297 84.6794ZM3.98812 85.048C4.13123 85.1448 4.30609 85.2279 4.50725 85.3L4.67598 84.8293C4.50073 84.7665 4.36664 84.7004 4.26827 84.6338L3.98812 85.048ZM4.50725 85.3C4.70946 85.3725 4.94513 85.4357 5.21247 85.4906L5.3131 85.0009C5.06197 84.9493 4.8502 84.8917 4.67598 84.8293L4.50725 85.3ZM5.2104 85.4902L6.10529 85.682L6.21005 85.193L5.31517 85.0013L5.2104 85.4902ZM6.10588 85.6821C6.69503 85.8068 7.19128 85.9698 7.59817 86.1682L7.81731 85.7188C7.36483 85.4982 6.82769 85.3238 6.20946 85.1929L6.10588 85.6821ZM7.59817 86.1682C8.00694 86.3676 8.333 86.5983 8.58231 86.8573L8.94255 86.5106C8.64499 86.2014 8.26792 85.9385 7.81731 85.7188L7.59817 86.1682ZM8.5834 86.8584C8.83329 87.1148 9.01424 87.4009 9.1294 87.7175L9.5993 87.5467C9.45877 87.1602 9.23844 86.8142 8.94146 86.5095L8.5834 86.8584ZM9.13017 87.7196C9.25031 88.0411 9.31344 88.3954 9.31677 88.7848L9.81675 88.7805C9.81298 88.339 9.74116 87.9262 9.59853 87.5446L9.13017 87.7196ZM9.31676 88.7814C9.31342 89.4563 9.14544 90.0109 8.82533 90.4591L9.2322 90.7497C9.62232 90.2035 9.813 89.5437 9.81676 88.7839L9.31676 88.7814ZM8.82533 90.4591C8.50264 90.9109 8.0369 91.2618 7.41399 91.5063L7.59666 91.9717C8.29478 91.6977 8.84466 91.2923 9.2322 90.7497L8.82533 90.4591ZM7.41356 91.5064C6.79328 91.7512 6.03599 91.8778 5.13494 91.8778V92.3778C6.08049 92.3778 6.90345 92.2452 7.59709 91.9715L7.41356 91.5064ZM5.13494 91.8778C4.21085 91.8778 3.416 91.7411 2.74494 91.4747L2.56046 91.9394C3.30275 92.2341 4.16273 92.3778 5.13494 92.3778V91.8778ZM2.74534 91.4748C2.08513 91.2114 1.57999 90.8105 1.2197 90.2734L0.804452 90.5519C1.22541 91.1795 1.81402 91.6416 2.56005 91.9392L2.74534 91.4748ZM1.22067 90.2748C0.867382 89.7401 0.679552 89.0422 0.676134 88.1638L0.176138 88.1657C0.179823 89.1127 0.382618 89.9134 0.80348 90.5504L1.22067 90.2748ZM0.426136 88.4148H3.23864V87.9148H0.426136V88.4148ZM2.98899 88.1781C3.00856 88.5459 3.10157 88.8717 3.27998 89.1436L3.698 88.8692C3.57812 88.6865 3.50423 88.4512 3.48828 88.1515L2.98899 88.1781ZM3.27998 89.1436C3.45806 89.4149 3.70725 89.6175 4.01797 89.7524L4.21711 89.2938C3.98806 89.1943 3.81822 89.0524 3.698 88.8692L3.27998 89.1436ZM4.01906 89.7529C4.3307 89.8864 4.69071 89.9489 5.09233 89.9489V89.4489C4.74111 89.4489 4.45126 89.3941 4.21602 89.2933L4.01906 89.7529ZM5.09233 89.9489C5.42707 89.9489 5.72294 89.9077 5.97207 89.8164L5.79995 89.347C5.62294 89.4119 5.38969 89.4489 5.09233 89.4489V89.9489ZM5.97207 89.8164C6.21626 89.7269 6.42075 89.5956 6.56644 89.4123L6.17503 89.1012C6.10056 89.1949 5.98189 89.2802 5.79995 89.347L5.97207 89.8164ZM6.56644 89.4123C6.71076 89.2307 6.7865 89.0198 6.79114 88.7877L6.29124 88.7777C6.28878 88.9007 6.25089 89.0058 6.17503 89.1012L6.56644 89.4123ZM6.79114 88.7774C6.78638 88.5539 6.71087 88.3523 6.56588 88.1832L6.18625 88.5086C6.25433 88.588 6.2889 88.6777 6.29125 88.788L6.79114 88.7774ZM6.57075 88.189C6.43088 88.0154 6.2176 87.8815 5.9611 87.7743L5.7683 88.2356C5.98765 88.3273 6.11529 88.4207 6.18138 88.5027L6.57075 88.189ZM5.96401 87.7755C5.70529 87.6636 5.36652 87.5636 4.95412 87.4731L4.84702 87.9615C5.24427 88.0486 5.54826 88.1404 5.7654 88.2344L5.96401 87.7755ZM4.95328 87.4729L3.86663 87.2386L3.76121 87.7273L4.84786 87.9617L4.95328 87.4729ZM3.86692 87.2386C2.92928 87.0353 2.21055 86.7 1.69381 86.2458L1.36372 86.6214C1.96203 87.1473 2.76675 87.5116 3.76093 87.7273L3.86692 87.2386ZM1.69508 86.2469C1.20283 85.8083 0.949821 85.2082 0.953123 84.4158L0.453127 84.4137C0.449327 85.3259 0.746748 86.0716 1.36245 86.6202L1.69508 86.2469ZM0.953122 84.4135C0.949817 83.7691 1.12067 83.2162 1.46006 82.7443L1.05414 82.4524C0.647794 83.0174 0.44933 83.6755 0.453128 84.4161L0.953122 84.4135ZM1.45988 82.7446C1.80699 82.2632 2.28977 81.8831 2.91822 81.6075L2.71743 81.1496C2.01776 81.4564 1.46005 81.8895 1.05432 82.4521L1.45988 82.7446ZM2.91778 81.6077C3.54859 81.3326 4.27885 81.1918 5.11364 81.1918V80.6918C4.22257 80.6918 3.42229 80.8422 2.71788 81.1494L2.91778 81.6077ZM5.11364 81.1918C5.96694 81.1918 6.69152 81.3346 7.29459 81.6111L7.503 81.1566C6.82055 80.8437 6.0217 80.6918 5.11364 80.6918V81.1918ZM7.29459 81.6111C7.89898 81.8883 8.35573 82.2741 8.67524 82.7664L9.09465 82.4942C8.71813 81.9141 8.18412 81.469 7.503 81.1566L7.29459 81.6111ZM8.67629 82.768C8.99802 83.2555 9.16428 83.8301 9.16762 84.5012L9.66761 84.4988C9.66385 83.7424 9.47499 83.0705 9.0936 82.4926L8.67629 82.768ZM9.41761 84.25H6.58381V84.75H9.41761V84.25ZM21.4531 89.619L21.6704 89.7425L21.6707 89.7421L21.4531 89.619ZM19.5408 91.5099L19.658 91.7307L19.6588 91.7303L19.5408 91.5099ZM14.1608 91.5046L14.0417 91.7244L14.0428 91.725L14.1608 91.5046ZM12.2539 89.6083L12.0359 89.7307L12.0365 89.7318L12.2539 89.6083ZM12.2539 83.4773L12.0363 83.3541L12.0361 83.3544L12.2539 83.4773ZM14.1608 81.5863L14.2785 81.8069L14.2788 81.8067L14.1608 81.5863ZM19.5408 81.5863L19.4228 81.8067L19.4236 81.8071L19.5408 81.5863ZM21.4531 83.4773L21.2355 83.6004L21.2357 83.6008L21.4531 83.4773ZM18.8537 84.8942L18.6198 84.9826L18.6207 84.9848L18.8537 84.8942ZM18.0919 83.8714L17.9483 84.0761L17.9508 84.0778L18.0919 83.8714ZM15.615 83.8714L15.7572 84.0771L15.7577 84.0768L15.615 83.8714ZM14.8533 84.8942L14.6201 84.8042L14.6197 84.8052L14.8533 84.8942ZM14.8533 88.2021L14.6194 88.2904L14.6203 88.2927L14.8533 88.2021ZM15.615 89.2248L15.4714 89.4294L15.4739 89.4311L15.615 89.2248ZM18.0919 89.2248L18.2341 89.4304L18.2346 89.4301L18.0919 89.2248ZM18.8537 88.2021L18.6204 88.1121L18.62 88.1131L18.8537 88.2021ZM21.9115 86.5455C21.9115 87.7281 21.6816 88.7076 21.2355 89.4958L21.6707 89.7421C22.1692 88.8613 22.4115 87.7918 22.4115 86.5455H21.9115ZM21.2357 89.4954C20.7855 90.2875 20.1816 90.8833 19.4228 91.2895L19.6588 91.7303C20.5051 91.2772 21.176 90.6123 21.6704 89.7425L21.2357 89.4954ZM19.4236 91.2891C18.6602 91.6945 17.8061 91.8991 16.8561 91.8991V92.3991C17.8806 92.3991 18.8163 92.1777 19.658 91.7307L19.4236 91.2891ZM16.8561 91.8991C15.8991 91.8991 15.0418 91.6927 14.2788 91.2842L14.0428 91.725C14.885 92.1759 15.8245 92.3991 16.8561 92.3991V91.8991ZM14.28 91.2848C13.5242 90.8751 12.9217 90.2773 12.4712 89.4848L12.0365 89.7318C12.5307 90.6012 13.1994 91.2677 14.0417 91.7244L14.28 91.2848ZM12.4718 89.4859C12.0289 88.6973 11.8007 87.721 11.8007 86.5455H11.3007C11.3007 87.7847 11.5413 88.8503 12.0359 89.7307L12.4718 89.4859ZM11.8007 86.5455C11.8007 85.3625 12.029 84.3847 12.4716 83.6001L12.0361 83.3544C11.5412 84.2318 11.3007 85.2994 11.3007 86.5455H11.8007ZM12.4714 83.6004C12.9218 82.8047 13.5239 82.2093 14.2785 81.8069L14.0432 81.3657C13.1998 81.8155 12.5305 82.4809 12.0363 83.3541L12.4714 83.6004ZM14.2788 81.8067C15.0418 81.3982 15.8991 81.1918 16.8561 81.1918V80.6918C15.8245 80.6918 14.885 80.915 14.0428 81.3659L14.2788 81.8067ZM16.8561 81.1918C17.8058 81.1918 18.6596 81.3981 19.4228 81.8067L19.6588 81.3659C18.8169 80.9152 17.881 80.6918 16.8561 80.6918V81.1918ZM19.4236 81.8071C20.1817 82.2096 20.7853 82.8049 21.2355 83.6004L21.6707 83.3541C21.1763 82.4806 20.505 81.8152 19.658 81.3655L19.4236 81.8071ZM21.2357 83.6008C21.6816 84.3852 21.9115 85.3628 21.9115 86.5455H22.4115C22.4115 85.2992 22.1692 84.2312 21.6704 83.3537L21.2357 83.6008ZM19.3647 86.5455C19.3647 85.8715 19.2752 85.2883 19.0867 84.8036L18.6207 84.9848C18.7802 85.395 18.8647 85.9126 18.8647 86.5455H19.3647ZM19.0875 84.8058C18.9023 84.3157 18.6199 83.9297 18.2331 83.6651L17.9508 84.0778C18.2387 84.2748 18.4641 84.5706 18.6198 84.9826L19.0875 84.8058ZM18.2356 83.6668C17.8518 83.3974 17.387 83.2699 16.8561 83.2699V83.7699C17.3054 83.7699 17.6644 83.8768 17.9483 84.0761L18.2356 83.6668ZM16.8561 83.2699C16.3251 83.2699 15.8592 83.3974 15.4724 83.6661L15.7577 84.0768C16.0456 83.8767 16.407 83.7699 16.8561 83.7699V83.2699ZM15.4728 83.6658C15.0904 83.9303 14.8086 84.3155 14.6201 84.8042L15.0865 84.9842C15.246 84.5709 15.472 84.2743 15.7572 84.0771L15.4728 83.6658ZM14.6197 84.8052C14.4352 85.2893 14.3476 85.872 14.3476 86.5455H14.8476C14.8476 85.9121 14.9305 85.3939 15.0869 84.9832L14.6197 84.8052ZM14.3476 86.5455C14.3476 87.219 14.4353 87.8031 14.6194 88.2904L15.0872 88.1137C14.9304 87.699 14.8476 87.1787 14.8476 86.5455H14.3476ZM14.6203 88.2927C14.809 88.7778 15.0905 89.1619 15.4714 89.4294L15.7587 89.0202C15.472 88.8189 15.2457 88.5212 15.0863 88.1114L14.6203 88.2927ZM15.4739 89.4311C15.8605 89.6956 16.3259 89.821 16.8561 89.821V89.321C16.4063 89.321 16.0443 89.2156 15.7562 89.0185L15.4739 89.4311ZM16.8561 89.821C17.3863 89.821 17.8505 89.6957 18.2341 89.4304L17.9498 89.0192C17.6658 89.2155 17.3061 89.321 16.8561 89.321V89.821ZM18.2346 89.4301C18.6198 89.1625 18.9019 88.7775 19.0873 88.2911L18.62 88.1131C18.4645 88.5215 18.2388 88.8183 17.9493 89.0195L18.2346 89.4301ZM19.0869 88.2921C19.2751 87.8042 19.3647 87.2195 19.3647 86.5455H18.8647C18.8647 87.1782 18.7802 87.6979 18.6204 88.1121L19.0869 88.2921ZM24.4318 92H24.1818V92.25H24.4318V92ZM24.4318 81.0909V80.8409H24.1818V81.0909H24.4318ZM27.3935 81.0909H27.6435V80.8409H27.3935V81.0909ZM27.3935 89.6136H27.1435V89.8636H27.3935V89.6136ZM31.804 89.6136H32.054V89.3636H31.804V89.6136ZM31.804 92V92.25H32.054V92H31.804ZM24.6818 92V81.0909H24.1818V92H24.6818ZM24.4318 81.3409H27.3935V80.8409H24.4318V81.3409ZM27.1435 81.0909V89.6136H27.6435V81.0909H27.1435ZM27.3935 89.8636H31.804V89.3636H27.3935V89.8636ZM31.554 89.6136V92H32.054V89.6136H31.554ZM31.804 91.75H24.4318V92.25H31.804V91.75ZM40.3571 81.0909V80.8409H40.1071V81.0909H40.3571ZM43.3188 81.0909H43.5688V80.8409H43.3188V81.0909ZM42.7222 90.2369L42.5131 90.0999L42.5129 90.1002L42.7222 90.2369ZM41.0709 91.6378L41.1758 91.8647L41.1768 91.8643L41.0709 91.6378ZM36.1384 91.6378L36.0325 91.8643L36.0335 91.8647L36.1384 91.6378ZM34.4871 90.2369L34.2769 90.3721L34.2778 90.3735L34.4871 90.2369ZM33.9012 81.0909V80.8409H33.6512V81.0909H33.9012ZM36.8628 81.0909H37.1128V80.8409H36.8628V81.0909ZM37.0865 88.7294L36.8684 88.8516L36.8691 88.8528L37.0865 88.7294ZM37.7044 89.3473L37.581 89.5647L37.5823 89.5654L37.7044 89.3473ZM39.5155 89.3473L39.6389 89.5647L39.5155 89.3473ZM40.1334 88.7294L40.3508 88.8528L40.3515 88.8516L40.1334 88.7294ZM40.3571 81.3409H43.3188V80.8409H40.3571V81.3409ZM43.0688 81.0909V88.0795H43.5688V81.0909H43.0688ZM43.0688 88.0795C43.0688 88.8691 42.8804 89.539 42.5131 90.0999L42.9313 90.3738C43.3594 89.7202 43.5688 88.9519 43.5688 88.0795H43.0688ZM42.5129 90.1002C42.1462 90.6617 41.6332 91.0991 40.9651 91.4113L41.1768 91.8643C41.922 91.516 42.5098 91.0194 42.9315 90.3735L42.5129 90.1002ZM40.966 91.4109C40.2981 91.7196 39.5148 91.8778 38.61 91.8778V92.3778C39.573 92.3778 40.4304 92.2093 41.1758 91.8647L40.966 91.4109ZM38.61 91.8778C37.6977 91.8778 36.911 91.7195 36.2433 91.4109L36.0335 91.8647C36.7792 92.2095 37.6401 92.3778 38.61 92.3778V91.8778ZM36.2442 91.4113C35.5762 91.0991 35.0631 90.6617 34.6964 90.1002L34.2778 90.3735C34.6995 91.0194 35.2873 91.516 36.0325 91.8643L36.2442 91.4113ZM34.6974 90.1016C34.3364 89.5405 34.1512 88.87 34.1512 88.0795H33.6512C33.6512 88.9511 33.8565 89.7187 34.2769 90.3721L34.6974 90.1016ZM34.1512 88.0795V81.0909H33.6512V88.0795H34.1512ZM33.9012 81.3409H36.8628V80.8409H33.9012V81.3409ZM36.6128 81.0909V87.8239H37.1128V81.0909H36.6128ZM36.6128 87.8239C36.6128 88.1994 36.6962 88.5441 36.8684 88.8516L37.3047 88.6073C37.1786 88.3821 37.1128 88.1231 37.1128 87.8239H36.6128ZM36.8691 88.8528C37.0405 89.1548 37.279 89.3933 37.581 89.5647L37.8278 89.1299C37.6043 89.003 37.4308 88.8295 37.304 88.606L36.8691 88.8528ZM37.5823 89.5654C37.8898 89.7376 38.2345 89.821 38.61 89.821V89.321C38.3108 89.321 38.0518 89.2553 37.8266 89.1292L37.5823 89.5654ZM38.61 89.821C38.9885 89.821 39.3339 89.7378 39.6389 89.5647L39.3921 89.1299C39.1716 89.255 38.9133 89.321 38.61 89.321V89.821ZM39.6389 89.5647C39.941 89.3933 40.1794 89.1548 40.3508 88.8528L39.916 88.606C39.7891 88.8295 39.6157 89.003 39.3921 89.1299L39.6389 89.5647ZM40.3515 88.8516C40.5237 88.5441 40.6071 88.1994 40.6071 87.8239H40.1071C40.1071 88.1231 40.0414 88.3821 39.9153 88.6073L40.3515 88.8516ZM40.6071 87.8239V81.0909H40.1071V87.8239H40.6071ZM45.3281 83.4773H45.0781V83.7273H45.3281V83.4773ZM45.3281 81.0909V80.8409H45.0781V81.0909H45.3281ZM54.8096 81.0909H55.0596V80.8409H54.8096V81.0909ZM54.8096 83.4773V83.7273H55.0596V83.4773H54.8096ZM51.5284 83.4773V83.2273H51.2784V83.4773H51.5284ZM51.5284 92V92.25H51.7784V92H51.5284ZM48.6093 92H48.3593V92.25H48.6093V92ZM48.6093 83.4773H48.8593V83.2273H48.6093V83.4773ZM45.5781 83.4773V81.0909H45.0781V83.4773H45.5781ZM45.3281 81.3409H54.8096V80.8409H45.3281V81.3409ZM54.5596 81.0909V83.4773H55.0596V81.0909H54.5596ZM54.8096 83.2273H51.5284V83.7273H54.8096V83.2273ZM51.2784 83.4773V92H51.7784V83.4773H51.2784ZM51.5284 91.75H48.6093V92.25H51.5284V91.75ZM48.8593 92V83.4773H48.3593V92H48.8593ZM48.6093 83.2273H45.3281V83.7273H48.6093V83.2273ZM59.7859 81.0909H60.0359V80.8409H59.7859V81.0909ZM59.7859 92V92.25H60.0359V92H59.7859ZM56.8242 92H56.5742V92.25H56.8242V92ZM56.8242 81.0909V80.8409H56.5742V81.0909H56.8242ZM59.5359 81.0909V92H60.0359V81.0909H59.5359ZM59.7859 91.75H56.8242V92.25H59.7859V91.75ZM57.0742 92V81.0909H56.5742V92H57.0742ZM56.8242 81.3409H59.7859V80.8409H56.8242V81.3409ZM71.9492 89.619L72.1665 89.7425L72.1668 89.7421L71.9492 89.619ZM70.0369 91.5099L70.1541 91.7307L70.1549 91.7303L70.0369 91.5099ZM64.6569 91.5046L64.5378 91.7244L64.5389 91.725L64.6569 91.5046ZM62.75 89.6083L62.532 89.7307L62.5326 89.7318L62.75 89.6083ZM62.75 83.4773L62.5324 83.3541L62.5322 83.3544L62.75 83.4773ZM64.6569 81.5863L64.7746 81.8069L64.7749 81.8067L64.6569 81.5863ZM70.0369 81.5863L69.9189 81.8067L69.9197 81.8071L70.0369 81.5863ZM71.9492 83.4773L71.7316 83.6004L71.7318 83.6008L71.9492 83.4773ZM69.3498 84.8942L69.1159 84.9826L69.1168 84.9848L69.3498 84.8942ZM68.588 83.8714L68.4444 84.0761L68.4469 84.0778L68.588 83.8714ZM66.1111 83.8714L66.2533 84.0771L66.2538 84.0768L66.1111 83.8714ZM65.3494 84.8942L65.1162 84.8042L65.1158 84.8052L65.3494 84.8942ZM65.3494 88.2021L65.1155 88.2904L65.1164 88.2927L65.3494 88.2021ZM66.1111 89.2248L65.9674 89.4294L65.9699 89.4311L66.1111 89.2248ZM68.588 89.2248L68.7302 89.4304L68.7307 89.4301L68.588 89.2248ZM69.3498 88.2021L69.1165 88.1121L69.1161 88.1131L69.3498 88.2021ZM72.4076 86.5455C72.4076 87.7281 72.1777 88.7076 71.7316 89.4958L72.1668 89.7421C72.6653 88.8613 72.9076 87.7918 72.9076 86.5455H72.4076ZM71.7318 89.4954C71.2816 90.2875 70.6777 90.8833 69.9189 91.2895L70.1549 91.7303C71.0012 91.2772 71.6721 90.6123 72.1665 89.7425L71.7318 89.4954ZM69.9197 91.2891C69.1563 91.6945 68.3022 91.8991 67.3522 91.8991V92.3991C68.3767 92.3991 69.3124 92.1777 70.1541 91.7307L69.9197 91.2891ZM67.3522 91.8991C66.3952 91.8991 65.5379 91.6927 64.7749 91.2842L64.5389 91.725C65.3811 92.1759 66.3206 92.3991 67.3522 92.3991V91.8991ZM64.7761 91.2848C64.0203 90.8751 63.4178 90.2773 62.9673 89.4848L62.5326 89.7318C63.0268 90.6012 63.6955 91.2677 64.5378 91.7244L64.7761 91.2848ZM62.9679 89.4859C62.525 88.6973 62.2968 87.721 62.2968 86.5455H61.7968C61.7968 87.7847 62.0374 88.8503 62.532 89.7307L62.9679 89.4859ZM62.2968 86.5455C62.2968 85.3625 62.5251 84.3847 62.9677 83.6001L62.5322 83.3544C62.0373 84.2318 61.7968 85.2994 61.7968 86.5455H62.2968ZM62.9675 83.6004C63.4179 82.8047 64.02 82.2093 64.7746 81.8069L64.5393 81.3657C63.6959 81.8155 63.0266 82.4809 62.5324 83.3541L62.9675 83.6004ZM64.7749 81.8067C65.5379 81.3982 66.3952 81.1918 67.3522 81.1918V80.6918C66.3206 80.6918 65.3811 80.915 64.5389 81.3659L64.7749 81.8067ZM67.3522 81.1918C68.3018 81.1918 69.1557 81.3981 69.9189 81.8067L70.1549 81.3659C69.313 80.9152 68.3771 80.6918 67.3522 80.6918V81.1918ZM69.9197 81.8071C70.6778 82.2096 71.2814 82.8049 71.7316 83.6004L72.1668 83.3541C71.6724 82.4806 71.0011 81.8152 70.1541 81.3655L69.9197 81.8071ZM71.7318 83.6008C72.1777 84.3852 72.4076 85.3628 72.4076 86.5455H72.9076C72.9076 85.2992 72.6653 84.2312 72.1665 83.3537L71.7318 83.6008ZM69.8608 86.5455C69.8608 85.8715 69.7712 85.2883 69.5828 84.8036L69.1168 84.9848C69.2763 85.395 69.3608 85.9126 69.3608 86.5455H69.8608ZM69.5836 84.8058C69.3984 84.3157 69.116 83.9297 68.7292 83.6651L68.4469 84.0778C68.7348 84.2748 68.9602 84.5706 69.1159 84.9826L69.5836 84.8058ZM68.7317 83.6668C68.3479 83.3974 67.8831 83.2699 67.3522 83.2699V83.7699C67.8015 83.7699 68.1605 83.8768 68.4444 84.0761L68.7317 83.6668ZM67.3522 83.2699C66.8212 83.2699 66.3553 83.3974 65.9685 83.6661L66.2538 84.0768C66.5417 83.8767 66.9031 83.7699 67.3522 83.7699V83.2699ZM65.9689 83.6658C65.5865 83.9303 65.3047 84.3155 65.1162 84.8042L65.5826 84.9842C65.7421 84.5709 65.9681 84.2743 66.2533 84.0771L65.9689 83.6658ZM65.1158 84.8052C64.9313 85.2893 64.8437 85.872 64.8437 86.5455H65.3437C65.3437 85.9121 65.4266 85.3939 65.583 84.9832L65.1158 84.8052ZM64.8437 86.5455C64.8437 87.219 64.9314 87.8031 65.1155 88.2904L65.5833 88.1137C65.4265 87.699 65.3437 87.1787 65.3437 86.5455H64.8437ZM65.1164 88.2927C65.3051 88.7778 65.5865 89.1619 65.9675 89.4294L66.2548 89.0202C65.9681 88.8189 65.7418 88.5212 65.5824 88.1114L65.1164 88.2927ZM65.9699 89.4311C66.3566 89.6956 66.822 89.821 67.3522 89.821V89.321C66.9024 89.321 66.5404 89.2156 66.2523 89.0185L65.9699 89.4311ZM67.3522 89.821C67.8824 89.821 68.3466 89.6957 68.7302 89.4304L68.4458 89.0192C68.1618 89.2155 67.8022 89.321 67.3522 89.321V89.821ZM68.7307 89.4301C69.1159 89.1625 69.398 88.7775 69.5834 88.2911L69.1161 88.1131C68.9605 88.5215 68.7349 88.8183 68.4454 89.0195L68.7307 89.4301ZM69.583 88.2921C69.7712 87.8042 69.8608 87.2195 69.8608 86.5455H69.3608C69.3608 87.1782 69.2763 87.6979 69.1165 88.1121L69.583 88.2921ZM84.3669 81.0909H84.6169V80.8409H84.3669V81.0909ZM84.3669 92V92.25H84.6169V92H84.3669ZM81.8953 92L81.6893 92.1417L81.7638 92.25H81.8953V92ZM77.9535 86.2685L78.1595 86.1268L78.085 86.0185H77.9535V86.2685ZM77.8896 86.2685V86.0185H77.6396V86.2685H77.8896ZM77.8896 92V92.25H78.1396V92H77.8896ZM74.9279 92H74.6779V92.25H74.9279V92ZM74.9279 81.0909V80.8409H74.6779V81.0909H74.9279ZM77.4421 81.0909L77.649 80.9505L77.5746 80.8409H77.4421V81.0909ZM81.32 86.8011L81.1132 86.9416L81.1876 87.0511H81.32V86.8011ZM81.4052 86.8011V87.0511H81.6552V86.8011H81.4052ZM81.4052 81.0909V80.8409H81.1552V81.0909H81.4052ZM84.1169 81.0909V92H84.6169V81.0909H84.1169ZM84.3669 91.75H81.8953V92.25H84.3669V91.75ZM82.1012 91.8583L78.1595 86.1268L77.7475 86.4101L81.6893 92.1417L82.1012 91.8583ZM77.9535 86.0185H77.8896V86.5185H77.9535V86.0185ZM77.6396 86.2685V92H78.1396V86.2685H77.6396ZM77.8896 91.75H74.9279V92.25H77.8896V91.75ZM75.1779 92V81.0909H74.6779V92H75.1779ZM74.9279 81.3409H77.4421V80.8409H74.9279V81.3409ZM77.2353 81.2314L81.1132 86.9416L81.5268 86.6607L77.649 80.9505L77.2353 81.2314ZM81.32 87.0511H81.4052V86.5511H81.32V87.0511ZM81.6552 86.8011V81.0909H81.1552V86.8011H81.6552ZM81.4052 81.3409H84.3669V80.8409H81.4052V81.3409ZM92.5485 84.5L92.2992 84.5199L92.3177 84.75H92.5485V84.5ZM92.1489 83.669L91.9872 83.8597L91.9886 83.8609L92.1489 83.669ZM90.3272 83.4826L90.414 83.717L90.4164 83.7162L90.3272 83.4826ZM89.9011 83.7756L89.7004 83.6265V83.6265L89.9011 83.7756ZM89.7573 84.2017L90.007 84.2152L90.0072 84.2073L89.7573 84.2017ZM89.8265 84.5586L89.6027 84.6705L89.6076 84.6794L89.8265 84.5586ZM90.0928 84.8409L89.9486 85.0452L89.9528 85.048L90.0928 84.8409ZM91.2274 85.2457L91.2798 85.0013L91.2777 85.0009L91.2274 85.2457ZM92.1223 85.4375L92.0699 85.682L92.0705 85.6821L92.1223 85.4375ZM94.7271 86.6839L94.547 86.8573L94.548 86.8584L94.7271 86.6839ZM95.329 87.6321L95.094 87.7175L95.0948 87.7196L95.329 87.6321ZM95.5314 88.7827L95.7814 88.7839L95.7814 88.7805L95.5314 88.7827ZM94.9934 90.6044L95.1968 90.7497L94.9934 90.6044ZM93.47 91.739L93.3786 91.5063L93.3782 91.5064L93.47 91.739ZM88.6173 91.707L88.5247 91.9392L88.5251 91.9394L88.6173 91.707ZM86.9767 90.4126L86.7681 90.5504L86.7691 90.5519L86.9767 90.4126ZM86.3908 88.1648V87.9148H86.1398L86.1408 88.1657L86.3908 88.1648ZM89.2033 88.1648L89.4529 88.1515L89.4403 87.9148H89.2033V88.1648ZM89.4536 89.0064L89.2446 89.1436L89.4536 89.0064ZM90.0822 89.5231L89.9826 89.7524L89.9837 89.7529L90.0822 89.5231ZM91.8507 89.5817L91.9367 89.8164L91.8507 89.5817ZM92.3354 89.2567L92.5311 89.4123L92.3354 89.2567ZM92.5058 88.7827L92.756 88.7877L92.7558 88.7774L92.5058 88.7827ZM92.3407 88.3459L92.1459 88.5028L92.1509 88.5086L92.3407 88.3459ZM91.8293 88.005L91.73 88.2344L91.7329 88.2356L91.8293 88.005ZM90.8652 87.7173L90.9188 87.4731L90.9179 87.4729L90.8652 87.7173ZM89.7786 87.483L89.7256 87.7273L89.7259 87.7273L89.7786 87.483ZM87.4934 86.4336L87.3271 86.6203L87.3284 86.6214L87.4934 86.4336ZM86.6678 84.4148L86.9178 84.4158L86.9178 84.4135L86.6678 84.4148ZM87.2217 82.5984L87.019 82.4521L87.0188 82.4524L87.2217 82.5984ZM88.7825 81.3786L88.6825 81.1494L88.6821 81.1496L88.7825 81.3786ZM93.3634 81.3839L93.2592 81.6111L93.3634 81.3839ZM94.8496 82.6303L94.6399 82.7664L94.6409 82.768L94.8496 82.6303ZM95.3823 84.5V84.75H95.6335L95.6323 84.4988L95.3823 84.5ZM92.7977 84.4801C92.7648 84.0689 92.6065 83.7256 92.3093 83.4772L91.9886 83.8609C92.1673 84.0102 92.2753 84.2209 92.2992 84.5199L92.7977 84.4801ZM92.3107 83.4784C92.0118 83.2248 91.5854 83.1207 91.0783 83.1207V83.6207C91.5299 83.6207 91.8173 83.7155 91.9872 83.8597L92.3107 83.4784ZM91.0783 83.1207C90.7552 83.1207 90.4717 83.1598 90.238 83.249L90.4164 83.7162C90.5733 83.6562 90.7906 83.6207 91.0783 83.6207V83.1207ZM90.2404 83.2482C90.0175 83.3307 89.8295 83.4527 89.7004 83.6265L90.1018 83.9246C90.1573 83.8499 90.2534 83.7765 90.414 83.717L90.2404 83.2482ZM89.7004 83.6265C89.5761 83.7938 89.512 83.9863 89.5073 84.1961L90.0072 84.2073C90.0096 84.0975 90.0414 84.0059 90.1018 83.9246L89.7004 83.6265ZM89.5076 84.1882C89.4984 84.3583 89.5283 84.5211 89.6029 84.6704L90.0501 84.4468C90.0182 84.383 90.0019 84.3079 90.0069 84.2152L89.5076 84.1882ZM89.6076 84.6794C89.6868 84.8228 89.8047 84.9436 89.9487 85.0452L90.237 84.6367C90.1395 84.5678 90.0799 84.5003 90.0454 84.4378L89.6076 84.6794ZM89.9528 85.048C90.0959 85.1448 90.2707 85.2279 90.4719 85.3L90.6406 84.8293C90.4654 84.7665 90.3313 84.7004 90.2329 84.6338L89.9528 85.048ZM90.4719 85.3C90.6741 85.3725 90.9098 85.4357 91.1771 85.4906L91.2777 85.0009C91.0266 84.9493 90.8148 84.8917 90.6406 84.8293L90.4719 85.3ZM91.175 85.4902L92.0699 85.682L92.1747 85.193L91.2798 85.0013L91.175 85.4902ZM92.0705 85.6821C92.6597 85.8068 93.1559 85.9698 93.5628 86.1682L93.782 85.7188C93.3295 85.4982 92.7923 85.3238 92.1741 85.1929L92.0705 85.6821ZM93.5628 86.1682C93.9716 86.3676 94.2976 86.5983 94.547 86.8573L94.9072 86.5106C94.6096 86.2014 94.2326 85.9385 93.782 85.7188L93.5628 86.1682ZM94.548 86.8584C94.7979 87.1148 94.9789 87.4009 95.094 87.7175L95.5639 87.5467C95.4234 87.1602 95.2031 86.8142 94.9061 86.5095L94.548 86.8584ZM95.0948 87.7196C95.215 88.0411 95.2781 88.3954 95.2814 88.7848L95.7814 88.7805C95.7776 88.339 95.7058 87.9262 95.5632 87.5446L95.0948 87.7196ZM95.2814 88.7814C95.2781 89.4563 95.1101 90.0109 94.79 90.4591L95.1968 90.7497C95.587 90.2035 95.7776 89.5437 95.7814 88.7839L95.2814 88.7814ZM94.79 90.4591C94.4673 90.9109 94.0015 91.2618 93.3786 91.5063L93.5613 91.9717C94.2594 91.6977 94.8093 91.2923 95.1968 90.7497L94.79 90.4591ZM93.3782 91.5064C92.7579 91.7512 92.0006 91.8778 91.0996 91.8778V92.3778C92.0451 92.3778 92.8681 92.2452 93.5617 91.9715L93.3782 91.5064ZM91.0996 91.8778C90.1755 91.8778 89.3806 91.7411 88.7096 91.4747L88.5251 91.9394C89.2674 92.2341 90.1274 92.3778 91.0996 92.3778V91.8778ZM88.71 91.4748C88.0498 91.2114 87.5446 90.8105 87.1843 90.2734L86.7691 90.5519C87.1901 91.1795 87.7787 91.6416 88.5247 91.9392L88.71 91.4748ZM87.1853 90.2748C86.832 89.7401 86.6442 89.0422 86.6408 88.1638L86.1408 88.1657C86.1445 89.1127 86.3473 89.9134 86.7681 90.5504L87.1853 90.2748ZM86.3908 88.4148H89.2033V87.9148H86.3908V88.4148ZM88.9536 88.1781C88.9732 88.5459 89.0662 88.8717 89.2446 89.1436L89.6627 88.8692C89.5428 88.6865 89.4689 88.4512 89.4529 88.1515L88.9536 88.1781ZM89.2446 89.1436C89.4227 89.4149 89.6719 89.6175 89.9826 89.7524L90.1818 89.2938C89.9527 89.1943 89.7829 89.0524 89.6627 88.8692L89.2446 89.1436ZM89.9837 89.7529C90.2953 89.8864 90.6554 89.9489 91.057 89.9489V89.4489C90.7058 89.4489 90.4159 89.3941 90.1807 89.2933L89.9837 89.7529ZM91.057 89.9489C91.3917 89.9489 91.6876 89.9077 91.9367 89.8164L91.7646 89.347C91.5876 89.4119 91.3543 89.4489 91.057 89.4489V89.9489ZM91.9367 89.8164C92.1809 89.7269 92.3854 89.5956 92.5311 89.4123L92.1397 89.1012C92.0652 89.1949 91.9465 89.2802 91.7646 89.347L91.9367 89.8164ZM92.5311 89.4123C92.6754 89.2307 92.7511 89.0198 92.7558 88.7877L92.2559 88.7777C92.2534 88.9007 92.2155 89.0058 92.1397 89.1012L92.5311 89.4123ZM92.7558 88.7774C92.751 88.5539 92.6755 88.3523 92.5305 88.1832L92.1509 88.5086C92.219 88.588 92.2535 88.6777 92.2559 88.788L92.7558 88.7774ZM92.5354 88.189C92.3955 88.0154 92.1823 87.8815 91.9257 87.7743L91.7329 88.2356C91.9523 88.3273 92.0799 88.4207 92.146 88.5027L92.5354 88.189ZM91.9286 87.7755C91.6699 87.6636 91.3312 87.5636 90.9188 87.4731L90.8117 87.9615C91.2089 88.0486 91.5129 88.1404 91.73 88.2344L91.9286 87.7755ZM90.9179 87.4729L89.8313 87.2386L89.7259 87.7273L90.8125 87.9617L90.9179 87.4729ZM89.8316 87.2386C88.8939 87.0353 88.1752 86.7 87.6585 86.2458L87.3284 86.6214C87.9267 87.1473 88.7314 87.5116 89.7256 87.7273L89.8316 87.2386ZM87.6597 86.2469C87.1675 85.8083 86.9145 85.2082 86.9178 84.4158L86.4178 84.4137C86.414 85.3259 86.7114 86.0716 87.3271 86.6202L87.6597 86.2469ZM86.9178 84.4135C86.9145 83.7691 87.0853 83.2162 87.4247 82.7443L87.0188 82.4524C86.6124 83.0174 86.414 83.6755 86.4178 84.4161L86.9178 84.4135ZM87.4245 82.7446C87.7716 82.2632 88.2544 81.8831 88.8829 81.6075L88.6821 81.1496C87.9824 81.4564 87.4247 81.8895 87.019 82.4521L87.4245 82.7446ZM88.8824 81.6077C89.5132 81.3326 90.2435 81.1918 91.0783 81.1918V80.6918C90.1872 80.6918 89.3869 80.8422 88.6825 81.1494L88.8824 81.6077ZM91.0783 81.1918C91.9316 81.1918 92.6562 81.3346 93.2592 81.6111L93.4676 81.1566C92.7852 80.8437 91.9863 80.6918 91.0783 80.6918V81.1918ZM93.2592 81.6111C93.8636 81.8883 94.3204 82.2741 94.6399 82.7664L95.0593 82.4942C94.6828 81.9141 94.1488 81.469 93.4676 81.1566L93.2592 81.6111ZM94.6409 82.768C94.9627 83.2555 95.1289 83.8301 95.1323 84.5012L95.6323 84.4988C95.6285 83.7424 95.4396 83.0705 95.0582 82.4926L94.6409 82.768ZM95.3823 84.25H92.5485V84.75H95.3823V84.25Z" fill="#2469BC"/>
<defs>
<filter id="filter0_d_185_76" x="11" y="22" width="44" height="60" filterUnits="userSpaceOnUse" color-interpolation-filters="sRGB">
<feFlood flood-opacity="0" result="BackgroundImageFix"/>
<feColorMatrix in="SourceAlpha" type="matrix" values="0 0 0 0 0 0 0 0 0 0 0 0 0 0 0 0 0 0 127 0" result="hardAlpha"/>
<feOffset dy="4"/>
<feGaussianBlur stdDeviation="2"/>
<feComposite in2="hardAlpha" operator="out"/>
<feColorMatrix type="matrix" values="0 0 0 0 0 0 0 0 0 0 0 0 0 0 0 0 0 0 0.25 0"/>
<feBlend mode="normal" in2="BackgroundImageFix" result="effect1_dropShadow_185_76"/>
<feBlend mode="normal" in="SourceGraphic" in2="effect1_dropShadow_185_76" result="shape"/>
</filter>
<filter id="filter1_d_185_76" x="36" y="22" width="44" height="60" filterUnits="userSpaceOnUse" color-interpolation-filters="sRGB">
<feFlood flood-opacity="0" result="BackgroundImageFix"/>
<feColorMatrix in="SourceAlpha" type="matrix" values="0 0 0 0 0 0 0 0 0 0 0 0 0 0 0 0 0 0 127 0" result="hardAlpha"/>
<feOffset dy="4"/>
<feGaussianBlur stdDeviation="2"/>
<feComposite in2="hardAlpha" operator="out"/>
<feColorMatrix type="matrix" values="0 0 0 0 0 0 0 0 0 0 0 0 0 0 0 0 0 0 0.25 0"/>
<feBlend mode="normal" in2="BackgroundImageFix" result="effect1_dropShadow_185_76"/>
<feBlend mode="normal" in="SourceGraphic" in2="effect1_dropShadow_185_76" result="shape"/>
</filter>
</defs>
</svg>
